<?xml version="1.0" standalone="no"?>
<!DOCTYPE svg PUBLIC "-//W3C//DTD SVG 20010904//EN"
 "http://www.w3.org/TR/2001/REC-SVG-20010904/DTD/svg10.dtd">
<svg version="1.0" xmlns="http://www.w3.org/2000/svg"
 width="414.000000pt" height="409.000000pt" viewBox="0 0 414.000000 409.000000"
 preserveAspectRatio="xMidYMid meet">

<g transform="translate(0.000000,409.000000) scale(0.100000,-0.100000)"
fill="#000000" stroke="none">
<path d="M1840 3995 c-235 -28 -457 -93 -650 -190 -887 -442 -1308 -1447
-1000 -2387 22 -68 65 -174 95 -236 l54 -113 38 7 c91 17 167 67 199 131 18
36 19 80 24 708 6 660 6 671 29 745 79 262 271 429 542 471 145 23 319 -12
448 -88 128 -76 245 -232 284 -378 34 -125 38 -219 31 -730 -7 -552 -6 -565
51 -622 29 -29 39 -33 85 -33 63 0 101 21 129 70 20 37 21 50 21 433 0 425 6
492 54 614 69 176 223 315 416 374 88 27 251 32 340 10 228 -55 417 -241 475
-466 28 -110 34 -230 28 -623 -7 -426 -4 -449 48 -521 29 -41 112 -88 164 -93
29 -3 32 1 82 102 28 58 70 159 92 225 36 111 48 154 83 320 20 96 17 536 -5
651 -52 273 -151 522 -297 744 -163 248 -393 466 -650 618 -357 211 -805 306
-1210 257z"/>
<path d="M1120 2941 c-173 -56 -283 -173 -327 -347 -15 -62 -17 -129 -14 -684
3 -699 2 -709 -70 -820 -54 -84 -166 -158 -241 -159 -16 -1 -28 -5 -28 -10 0
-5 24 -40 53 -77 63 -81 66 -81 175 -28 88 43 188 136 224 209 62 122 61 118
67 855 7 746 3 704 72 792 42 52 96 85 173 105 58 16 67 16 129 0 115 -28 193
-99 231 -210 14 -42 16 -118 16 -621 0 -539 1 -577 20 -651 27 -107 55 -159
121 -227 40 -41 80 -69 135 -95 72 -35 88 -38 183 -42 123 -4 193 9 273 51
112 60 192 158 232 287 19 62 20 94 22 477 1 226 5 429 8 450 27 143 153 247
301 248 60 1 80 -4 137 -32 73 -36 114 -79 151 -159 22 -47 22 -57 27 -563 5
-496 6 -517 28 -580 28 -84 69 -146 140 -211 59 -54 193 -126 212 -114 6 3 33
36 60 73 l51 66 -53 16 c-99 31 -156 74 -210 159 -60 96 -62 108 -63 641 -1
467 -1 487 -22 548 -30 88 -62 139 -130 203 -94 90 -191 129 -323 129 -146 0
-258 -48 -354 -151 -58 -62 -85 -113 -113 -210 -16 -57 -18 -108 -18 -484 l0
-420 -28 -60 c-34 -73 -86 -128 -152 -163 -68 -35 -196 -37 -266 -5 -66 30
-124 86 -156 151 l-28 57 -5 610 c-5 539 -8 617 -23 669 -47 160 -162 279
-316 326 -82 26 -223 26 -301 1z"/>
<path d="M1199 2587 c-67 -45 -64 -15 -64 -722 -1 -655 -1 -668 -41 -805 -48
-165 -175 -314 -342 -400 l-63 -33 28 -29 c45 -48 171 -147 268 -211 219 -144
467 -241 755 -293 135 -25 507 -25 635 -1 403 79 708 226 1003 485 l62 56 -50
27 c-183 100 -297 244 -352 444 -21 76 -22 106 -27 580 -5 386 -9 505 -19 523
-36 63 -137 82 -191 36 -18 -14 -37 -36 -44 -48 -9 -15 -14 -141 -18 -461 -5
-419 -6 -444 -28 -515 -35 -117 -77 -187 -166 -276 -64 -65 -97 -89 -165 -122
-363 -175 -790 -17 -925 341 -51 137 -57 225 -53 807 3 498 2 537 -15 568 -38
69 -124 92 -188 49z"/>
</g>
</svg>
